<?xml version="1.0" encoding="UTF-8"?>
<mxfile host="app.diagrams.net" modified="2025-10-06T21:00:00.000Z" agent="5.0" etag="user-diagram" version="24.7.16" type="device">
  <diagram name="Arquitetura PokeAPI" id="arquitetura-pokeapi">
    <mxGraphModel dx="1422" dy="754" grid="1" gridSize="10" guides="1" tooltips="1" connect="1" arrows="1" fold="1" page="1" pageScale="1" pageWidth="1400" pageHeight="900" math="0" shadow="0">
      <root>
        <mxCell id="0"/>
        <mxCell id="1" parent="0"/>
        <mxCell id="2" value="Frontend" style="swimlane;whiteSpace=wrap;html=1;fillColor=#e1f5fe;strokeColor=#01579b;fontStyle=1;fontSize=14;startSize=30;swimlaneLine=1;" vertex="1" parent="1">
          <mxGeometry x="30" y="110" width="240" height="100" as="geometry"/>
        </mxCell>
        <mxCell id="3" value="Interface Web - Thymeleaf" style="rounded=1;whiteSpace=wrap;html=1;fillColor=#e1f5fe;strokeColor=#01579b;fontSize=11;" vertex="1" parent="2">
          <mxGeometry x="20" y="40" width="90" height="40" as="geometry"/>
        </mxCell>
        <mxCell id="4" value="Navegador" style="rounded=1;whiteSpace=wrap;html=1;fillColor=#e1f5fe;strokeColor=#01579b;fontSize=11;" vertex="1" parent="2">
          <mxGeometry x="130" y="40" width="80" height="40" as="geometry"/>
        </mxCell>
        <mxCell id="5" value="API Layer" style="swimlane;whiteSpace=wrap;html=1;fillColor=#f3e5f5;strokeColor=#7b1fa2;fontStyle=1;fontSize=14;startSize=30;swimlaneLine=1;" vertex="1" parent="1">
          <mxGeometry x="590" y="110" width="360" height="100" as="geometry"/>
        </mxCell>
        <mxCell id="6" value="WebController" style="rounded=1;whiteSpace=wrap;html=1;fillColor=#f3e5f5;strokeColor=#7b1fa2;fontSize=11;" vertex="1" parent="5">
          <mxGeometry x="20" y="40" width="90" height="40" as="geometry"/>
        </mxCell>
        <mxCell id="7" value="BattleController" style="rounded=1;whiteSpace=wrap;html=1;fillColor=#f3e5f5;strokeColor=#7b1fa2;fontSize=11;" vertex="1" parent="5">
          <mxGeometry x="130" y="40" width="90" height="40" as="geometry"/>
        </mxCell>
        <mxCell id="8" value="PokemonController" style="rounded=1;whiteSpace=wrap;html=1;fillColor=#f3e5f5;strokeColor=#7b1fa2;fontSize=11;" vertex="1" parent="5">
          <mxGeometry x="240" y="40" width="100" height="40" as="geometry"/>
        </mxCell>
        <mxCell id="9" value="Service Layer" style="swimlane;whiteSpace=wrap;html=1;fillColor=#e8f5e8;strokeColor=#2e7d32;fontStyle=1;fontSize=14;startSize=30;swimlaneLine=1;" vertex="1" parent="1">
          <mxGeometry x="590" y="390" width="360" height="100" as="geometry"/>
        </mxCell>
        <mxCell id="10" value="BattleService" style="rounded=1;whiteSpace=wrap;html=1;fillColor=#e8f5e8;strokeColor=#2e7d32;fontSize=11;" vertex="1" parent="9">
          <mxGeometry x="20" y="40" width="90" height="40" as="geometry"/>
        </mxCell>
        <mxCell id="11" value="PokemonService" style="rounded=1;whiteSpace=wrap;html=1;fillColor=#e8f5e8;strokeColor=#2e7d32;fontSize=11;" vertex="1" parent="9">
          <mxGeometry x="130" y="40" width="90" height="40" as="geometry"/>
        </mxCell>
        <mxCell id="12" value="RestTemplate" style="rounded=1;whiteSpace=wrap;html=1;fillColor=#e8f5e8;strokeColor=#2e7d32;fontSize=11;" vertex="1" parent="9">
          <mxGeometry x="240" y="40" width="100" height="40" as="geometry"/>
        </mxCell>
        <mxCell id="13" value="Data Layer" style="swimlane;whiteSpace=wrap;html=1;fillColor=#fff3e0;strokeColor=#f57c00;fontStyle=1;fontSize=14;startSize=30;swimlaneLine=1;" vertex="1" parent="1">
          <mxGeometry x="245" y="770" width="360" height="100" as="geometry"/>
        </mxCell>
        <mxCell id="14" value="BattleRepository" style="rounded=1;whiteSpace=wrap;html=1;fillColor=#fff3e0;strokeColor=#f57c00;fontSize=11;" vertex="1" parent="13">
          <mxGeometry x="20" y="40" width="90" height="40" as="geometry"/>
        </mxCell>
        <mxCell id="15" value="PokemonRepository" style="rounded=1;whiteSpace=wrap;html=1;fillColor=#fff3e0;strokeColor=#f57c00;fontSize=11;" vertex="1" parent="13">
          <mxGeometry x="130" y="40" width="100" height="40" as="geometry"/>
        </mxCell>
        <mxCell id="16" value="H2 Database" style="shape=cylinder3;whiteSpace=wrap;html=1;boundedLbl=1;backgroundOutline=1;size=15;fillColor=#fff3e0;strokeColor=#f57c00;fontSize=11;" vertex="1" parent="13">
          <mxGeometry x="260" y="35" width="80" height="50" as="geometry"/>
        </mxCell>
        <mxCell id="17" value="External API" style="swimlane;whiteSpace=wrap;html=1;fillColor=#ffebee;strokeColor=#c62828;fontStyle=1;fontSize=14;startSize=30;swimlaneLine=1;" vertex="1" parent="1">
          <mxGeometry x="1130" y="380" width="180" height="100" as="geometry"/>
        </mxCell>
        <mxCell id="18" value="PokeAPI&#xa;Externa" style="rounded=1;whiteSpace=wrap;html=1;fillColor=#ffebee;strokeColor=#c62828;fontSize=11;" vertex="1" parent="17">
          <mxGeometry x="60" y="50" width="80" height="40" as="geometry"/>
        </mxCell>
        <mxCell id="19" value="DTOs &amp; Entities" style="swimlane;whiteSpace=wrap;html=1;fillColor=#f1f8e9;strokeColor=#689f38;fontStyle=1;fontSize=14;startSize=30;swimlaneLine=1;" vertex="1" parent="1">
          <mxGeometry x="640" y="770" width="280" height="100" as="geometry"/>
        </mxCell>
        <mxCell id="20" value="BattleDTO" style="rounded=1;whiteSpace=wrap;html=1;fillColor=#f1f8e9;strokeColor=#689f38;fontSize=10;" vertex="1" parent="19">
          <mxGeometry x="20" y="40" width="60" height="25" as="geometry"/>
        </mxCell>
        <mxCell id="21" value="PokemonDTO" style="rounded=1;whiteSpace=wrap;html=1;fillColor=#f1f8e9;strokeColor=#689f38;fontSize=10;" vertex="1" parent="19">
          <mxGeometry x="90" y="40" width="70" height="25" as="geometry"/>
        </mxCell>
        <mxCell id="22" value="Battle Entity" style="rounded=1;whiteSpace=wrap;html=1;fillColor=#f1f8e9;strokeColor=#689f38;fontSize=10;" vertex="1" parent="19">
          <mxGeometry x="20" y="65" width="70" height="25" as="geometry"/>
        </mxCell>
        <mxCell id="23" value="Pokemon Entity" style="rounded=1;whiteSpace=wrap;html=1;fillColor=#f1f8e9;strokeColor=#689f38;fontSize=10;" vertex="1" parent="19">
          <mxGeometry x="100" y="65" width="80" height="25" as="geometry"/>
        </mxCell>

        <!-- Connections -->
        <mxCell id="24" style="edgeStyle=orthogonalEdgeStyle;rounded=0;orthogonalLoop=1;jettySize=auto;html=1;strokeWidth=2;strokeColor=#333333;endArrow=classic;" edge="1" source="4" target="3" parent="1">
          <mxGeometry relative="1" as="geometry"/>
        </mxCell>
        <mxCell id="25" style="edgeStyle=orthogonalEdgeStyle;rounded=0;orthogonalLoop=1;jettySize=auto;html=1;strokeWidth=2;strokeColor=#333333;endArrow=classic;" edge="1" source="3" target="6" parent="1">
          <mxGeometry relative="1" as="geometry"/>
        </mxCell>
        <mxCell id="26" style="edgeStyle=orthogonalEdgeStyle;rounded=0;orthogonalLoop=1;jettySize=auto;html=1;strokeWidth=2;strokeColor=#333333;endArrow=classic;" edge="1" source="4" target="7" parent="1">
          <mxGeometry relative="1" as="geometry">
            <Array as="points">
              <mxPoint x="380" y="160"/>
              <mxPoint x="585" y="160"/>
            </Array>
          </mxGeometry>
        </mxCell>
        <mxCell id="27" style="edgeStyle=orthogonalEdgeStyle;rounded=0;orthogonalLoop=1;jettySize=auto;html=1;strokeWidth=2;strokeColor=#333333;endArrow=classic;" edge="1" source="4" target="8" parent="1">
          <mxGeometry relative="1" as="geometry">
            <Array as="points">
              <mxPoint x="380" y="150"/>
              <mxPoint x="800" y="150"/>
            </Array>
          </mxGeometry>
        </mxCell>
        <mxCell id="28" style="edgeStyle=orthogonalEdgeStyle;rounded=0;orthogonalLoop=1;jettySize=auto;html=1;strokeWidth=2;strokeColor=#333333;endArrow=classic;" edge="1" source="6" target="10" parent="1">
          <mxGeometry relative="1" as="geometry"/>
        </mxCell>
        <mxCell id="29" style="edgeStyle=orthogonalEdgeStyle;rounded=0;orthogonalLoop=1;jettySize=auto;html=1;strokeWidth=2;strokeColor=#333333;endArrow=classic;" edge="1" source="7" target="10" parent="1">
          <mxGeometry relative="1" as="geometry">
            <Array as="points">
              <mxPoint x="585" y="290"/>
              <mxPoint x="575" y="290"/>
            </Array>
          </mxGeometry>
        </mxCell>
        <mxCell id="30" style="edgeStyle=orthogonalEdgeStyle;rounded=0;orthogonalLoop=1;jettySize=auto;html=1;strokeWidth=2;strokeColor=#333333;endArrow=classic;" edge="1" source="8" target="11" parent="1">
          <mxGeometry relative="1" as="geometry">
            <Array as="points">
              <mxPoint x="800" y="290"/>
              <mxPoint x="685" y="290"/>
            </Array>
          </mxGeometry>
        </mxCell>
        <mxCell id="31" style="edgeStyle=orthogonalEdgeStyle;rounded=0;orthogonalLoop=1;jettySize=auto;html=1;strokeWidth=2;strokeColor=#333333;endArrow=classic;" edge="1" source="10" target="14" parent="1">
          <mxGeometry relative="1" as="geometry">
            <Array as="points">
              <mxPoint x="575" y="450"/>
              <mxPoint x="275" y="450"/>
            </Array>
          </mxGeometry>
        </mxCell>
        <mxCell id="32" style="edgeStyle=orthogonalEdgeStyle;rounded=0;orthogonalLoop=1;jettySize=auto;html=1;strokeWidth=2;strokeColor=#333333;endArrow=classic;" edge="1" source="10" target="15" parent="1">
          <mxGeometry relative="1" as="geometry">
            <Array as="points">
              <mxPoint x="575" y="460"/>
              <mxPoint x="390" y="460"/>
            </Array>
          </mxGeometry>
        </mxCell>
        <mxCell id="33" style="edgeStyle=orthogonalEdgeStyle;rounded=0;orthogonalLoop=1;jettySize=auto;html=1;strokeWidth=2;strokeColor=#333333;endArrow=classic;" edge="1" source="11" target="15" parent="1">
          <mxGeometry relative="1" as="geometry">
            <Array as="points">
              <mxPoint x="685" y="450"/>
              <mxPoint x="390" y="450"/>
            </Array>
          </mxGeometry>
        </mxCell>
        <mxCell id="34" style="edgeStyle=orthogonalEdgeStyle;rounded=0;orthogonalLoop=1;jettySize=auto;html=1;strokeWidth=2;strokeColor=#333333;endArrow=classic;" edge="1" source="11" target="12" parent="1">
          <mxGeometry relative="1" as="geometry"/>
        </mxCell>
        <mxCell id="35" style="edgeStyle=orthogonalEdgeStyle;rounded=0;orthogonalLoop=1;jettySize=auto;html=1;strokeWidth=2;strokeColor=#333333;endArrow=classic;" edge="1" source="12" target="18" parent="1">
          <mxGeometry relative="1" as="geometry"/>
        </mxCell>
        <mxCell id="36" style="edgeStyle=orthogonalEdgeStyle;rounded=0;orthogonalLoop=1;jettySize=auto;html=1;strokeWidth=2;strokeColor=#333333;endArrow=classic;" edge="1" source="14" target="16" parent="1">
          <mxGeometry relative="1" as="geometry"/>
        </mxCell>
        <mxCell id="37" style="edgeStyle=orthogonalEdgeStyle;rounded=0;orthogonalLoop=1;jettySize=auto;html=1;strokeWidth=2;strokeColor=#333333;endArrow=classic;" edge="1" source="15" target="16" parent="1">
          <mxGeometry relative="1" as="geometry"/>
        </mxCell>
        <mxCell id="38" style="edgeStyle=orthogonalEdgeStyle;rounded=0;orthogonalLoop=1;jettySize=auto;html=1;strokeWidth=1;strokeColor=#666666;endArrow=classic;dashed=1;" edge="1" source="10" target="20" parent="1">
          <mxGeometry relative="1" as="geometry">
            <Array as="points">
              <mxPoint x="575" y="470"/>
              <mxPoint x="680" y="470"/>
            </Array>
          </mxGeometry>
        </mxCell>
        <mxCell id="39" style="edgeStyle=orthogonalEdgeStyle;rounded=0;orthogonalLoop=1;jettySize=auto;html=1;strokeWidth=1;strokeColor=#666666;endArrow=classic;dashed=1;" edge="1" source="11" target="21" parent="1">
          <mxGeometry relative="1" as="geometry">
            <Array as="points">
              <mxPoint x="685" y="470"/>
              <mxPoint x="755" y="470"/>
            </Array>
          </mxGeometry>
        </mxCell>
        <mxCell id="40" style="edgeStyle=orthogonalEdgeStyle;rounded=0;orthogonalLoop=1;jettySize=auto;html=1;strokeWidth=1;strokeColor=#666666;endArrow=classic;dashed=1;" edge="1" source="14" target="22" parent="1">
          <mxGeometry relative="1" as="geometry">
            <Array as="points">
              <mxPoint x="685" y="630"/>
            </Array>
          </mxGeometry>
        </mxCell>
        <mxCell id="41" style="edgeStyle=orthogonalEdgeStyle;rounded=0;orthogonalLoop=1;jettySize=auto;html=1;strokeWidth=1;strokeColor=#666666;endArrow=classic;dashed=1;" edge="1" source="15" target="23" parent="1">
          <mxGeometry relative="1" as="geometry">
            <Array as="points">
              <mxPoint x="390" y="610"/>
              <mxPoint x="770" y="610"/>
            </Array>
          </mxGeometry>
        </mxCell>

        <!-- Title -->
        <mxCell id="42" value="Arquitetura do Sistema PokeAPI - Batalhas Pokémon" style="text;html=1;strokeColor=none;fillColor=none;align=center;verticalAlign=middle;whiteSpace=wrap;rounded=0;fontSize=18;fontStyle=1;fontColor=#1a1a1a;" vertex="1" parent="1">
          <mxGeometry x="360" y="20" width="400" height="30" as="geometry"/>
        </mxCell>

        <!-- Legend -->
        <mxCell id="43" value="" style="rounded=1;whiteSpace=wrap;html=1;fillColor=#f5f5f5;strokeColor=#666666;" vertex="1" parent="1">
          <mxGeometry x="995" y="770" width="180" height="100" as="geometry"/>
        </mxCell>
        <mxCell id="44" value="Legenda:" style="text;html=1;strokeColor=none;fillColor=none;align=left;verticalAlign=top;whiteSpace=wrap;rounded=0;fontSize=12;fontStyle=1;" vertex="1" parent="1">
          <mxGeometry x="995" y="770" width="60" height="20" as="geometry"/>
        </mxCell>
        <mxCell id="45" value="━━━ Fluxo de dados" style="text;html=1;strokeColor=none;fillColor=none;align=left;verticalAlign=middle;whiteSpace=wrap;rounded=0;fontSize=11;" vertex="1" parent="1">
          <mxGeometry x="995" y="800" width="150" height="20" as="geometry"/>
        </mxCell>
        <mxCell id="46" value="┅┅┅ Uso de DTOs/Entities" style="text;html=1;strokeColor=none;fillColor=none;align=left;verticalAlign=middle;whiteSpace=wrap;rounded=0;fontSize=11;" vertex="1" parent="1">
          <mxGeometry x="990" y="830" width="150" height="20" as="geometry"/>
        </mxCell>

      </root>
    </mxGraphModel>
  </diagram>
</mxfile>

